<mxfile host="app.diagrams.net" modified="2021-07-07T22:20:18.506Z" agent="5.0 (X11)" etag="XNj6YUy8tcV9w2sCqHej" version="14.8.5" type="github">
  <diagram id="p7oysk6ndTNmlZGjdjdw" name="Page-1">
    <mxGraphModel dx="1219" dy="696" grid="1" gridSize="10" guides="1" tooltips="1" connect="1" arrows="1" fold="1" page="1" pageScale="1" pageWidth="827" pageHeight="1169" math="0" shadow="0">
      <root>
        <mxCell id="0" />
        <mxCell id="1" parent="0" />
        <mxCell id="ecHuSdsquGclo5wVPDqu-1" value="ARTIFICIAL" style="rounded=0;whiteSpace=wrap;html=1;" parent="1" vertex="1">
          <mxGeometry x="80" y="80" width="120" height="60" as="geometry" />
        </mxCell>
        <mxCell id="ecHuSdsquGclo5wVPDqu-2" value="&lt;div&gt;Sistemas de &lt;br&gt;&lt;/div&gt;&lt;div&gt;Representación del Conocimiento&lt;/div&gt;" style="shape=parallelogram;perimeter=parallelogramPerimeter;whiteSpace=wrap;html=1;fixedSize=1;" parent="1" vertex="1">
          <mxGeometry x="390" y="80" width="200" height="80" as="geometry" />
        </mxCell>
        <mxCell id="ecHuSdsquGclo5wVPDqu-3" value="Sistemas de razonamiento" style="shape=parallelogram;perimeter=parallelogramPerimeter;whiteSpace=wrap;html=1;fixedSize=1;" parent="1" vertex="1">
          <mxGeometry x="390" y="170" width="200" height="70" as="geometry" />
        </mxCell>
        <mxCell id="F7p95SuBvXbChNVBSlAI-1" value="Sistemas de Aprendizaje" style="shape=parallelogram;perimeter=parallelogramPerimeter;whiteSpace=wrap;html=1;fixedSize=1;" vertex="1" parent="1">
          <mxGeometry x="390" y="250" width="190" height="70" as="geometry" />
        </mxCell>
        <mxCell id="F7p95SuBvXbChNVBSlAI-2" value="&lt;div&gt;Sistemas de Interacción&lt;/div&gt;&lt;div&gt; con el Entorno&lt;/div&gt;" style="shape=parallelogram;perimeter=parallelogramPerimeter;whiteSpace=wrap;html=1;fixedSize=1;" vertex="1" parent="1">
          <mxGeometry x="390" y="330" width="190" height="90" as="geometry" />
        </mxCell>
      </root>
    </mxGraphModel>
  </diagram>
</mxfile>
